<?xml version="1.0" encoding="UTF-8"?>
<svg id="Layer_1" data-name="Layer 1" xmlns="http://www.w3.org/2000/svg" xmlns:xlink="http://www.w3.org/1999/xlink" viewBox="0 0 1005.7 901">
  <defs>
    <style>
      .cls-1 {
        fill: none;
        stroke: #231f20;
        stroke-miterlimit: 10;
      }

      .cls-2 {
        isolation: isolate;
      }

      .cls-3 {
        clip-path: url(#clippath-3);
      }
    </style>
    <clipPath id="clippath-3">
      <path class="cls-1" d="M833.54,208.56l-65.67-35.72c-7.88-4.28-13.74-15.81-34.43-56.95-13.55-26.93-30.51-44.63-49.28-54.84l65.67,35.72c18.76,10.21,35.73,27.91,49.28,54.84,20.7,41.14,26.56,52.67,34.43,56.95Z"/>
    </clipPath>
  </defs>
  <g class="cls-2">
    <path class="cls-1" d="M724.96,571.55l65.67,35.72c-2.72-1.48-6.03-2.38-9.96-2.63-3.49-.22-6.79-.1-9.93,.35-40.81,5.74-55.13,64.78-104.83,112.46-37.98,36.47-101.12,94.33-173.84,115.18l-65.67-35.72c72.72-20.85,135.86-78.71,173.84-115.18,49.7-47.68,64.02-106.72,104.83-112.46,3.14-.44,6.45-.57,9.93-.35,3.92,.25,7.23,1.14,9.96,2.63Z"/>
    <g>
      <g class="cls-3">
        <g class="cls-2">
          <path class="cls-1" d="M833.54,208.56l-65.67-35.72c-7.88-4.28-13.74-15.81-34.43-56.95-13.55-26.93-30.51-44.63-49.28-54.84l65.67,35.72c18.76,10.21,35.73,27.91,49.28,54.84,20.7,41.14,26.56,52.67,34.43,56.95"/>
        </g>
      </g>
      <path class="cls-1" d="M833.54,208.56l-65.67-35.72c-7.88-4.28-13.74-15.81-34.43-56.95-13.55-26.93-30.51-44.63-49.28-54.84l65.67,35.72c18.76,10.21,35.73,27.91,49.28,54.84,20.7,41.14,26.56,52.67,34.43,56.95Z"/>
    </g>
    <path class="cls-1" d="M605.11,341.78l65.67,35.72c-7.88-4.29-19.18-7.54-34.5-9.22-22.93-2.51-36.17-3.28-53.77-4.77l-65.67-35.72c17.6,1.49,30.84,2.26,53.77,4.77,15.32,1.68,26.62,4.93,34.5,9.22Z"/>
    <path class="cls-1" d="M732.17,19.99l65.67,35.72c-29.54-16.07-74.74-23.9-124.23-16.94L607.93,3.05c49.49-6.95,94.69,.87,124.23,16.94Z"/>
    <path class="cls-1" d="M673.6,38.77c66.53-9.35,125.31,8.01,148.71,36.21,35.36,42.58,34.44,133.53,18.02,135.84-12.64-2.56-15.19-7.43-41.24-59.21-26.91-53.47-67.29-70.58-108.45-64.8-108.33,15.22-221.88,189.2-108.14,276.71,17.6,1.49,30.84,2.26,53.77,4.77,90.34,9.9,40.94,74.53-25.11,83.82-28.01,3.94-59.02-2.09-83.62-26.47-100.89,67.55-188.69,345.01-35.48,407,72.72-20.85,135.86-78.71,173.84-115.18,49.7-47.68,64.02-106.72,104.83-112.46,3.14-.44,6.45-.57,9.93-.35,69.23,4.39-52.12,210.31-239.37,276.15-24.74,8.7-47.49,14.34-68.33,17.27-276.94,38.92-217.93-400.88-25.38-517.43-61.13-71.32-31.67-167.33,72.28-266.59,47.56-45.41,102.9-68.14,153.73-75.28Z"/>
    <path class="cls-1" d="M364.38,882.93l-65.67-35.72c-145.85-79.34-78.29-404.53,83.21-502.29l65.67,35.72c-161.5,97.76-229.06,422.95-83.21,502.29Z"/>
    <path class="cls-1" d="M447.59,380.64l-65.67-35.72c-61.13-71.32-31.67-167.33,72.28-266.59C501.76,32.92,557.1,10.19,607.93,3.05l65.67,35.72c-50.83,7.14-106.17,29.87-153.73,75.28-103.94,99.26-133.4,195.26-72.28,266.59Z"/>
  </g>
</svg>