<?xml version="1.0" encoding="UTF-8"?>
<svg id="Layer_1" data-name="Layer 1" xmlns="http://www.w3.org/2000/svg" xmlns:xlink="http://www.w3.org/1999/xlink" viewBox="0 0 1024 900">
  <defs>
    <style>
      .cls-1 {
        clip-path: url(#clippath-16);
      }

      .cls-2 {
        clip-path: url(#clippath-13);
      }

      .cls-3 {
        isolation: isolate;
      }

      .cls-4 {
        fill: none;
        stroke: #231f20;
        stroke-miterlimit: 10;
        stroke-width: 3px;
      }

      .cls-5 {
        clip-path: url(#clippath-15);
      }

      .cls-6 {
        clip-path: url(#clippath-6);
      }

      .cls-7 {
        clip-path: url(#clippath-1);
      }

      .cls-8 {
        clip-path: url(#clippath-14);
      }
    </style>
    <clipPath id="clippath-1">
      <path class="cls-4" d="M371.26,798.24l-55.91-30.41c-18.01-9.79-33.52-28.96-35.18-61.92-2.73-55.29,23.31-153.79,56.52-246.74l55.91,30.41c-33.21,92.95-59.25,191.45-56.52,246.74,1.66,32.96,17.17,52.13,35.18,61.92Z"/>
    </clipPath>
    <clipPath id="clippath-6">
      <path class="cls-4" d="M245.34,486.19l-55.91-30.41c62.87-28.28,132.6-46.03,170.1-55.22l55.91,30.41c-37.5,9.19-107.23,26.94-170.1,55.22Z"/>
    </clipPath>
    <clipPath id="clippath-8">
      <path class="cls-4" d="M71.99,826.53l-55.91-30.41c-20.32-11.05,1.59-108.71,33.59-223.99,34.73-124.95,93.04-342.47,229.42-431.95,53.64-35.15,109.57-57.72,156.49-64.32,31.26-4.39,58.51-1.69,78.4,9.13l55.91,30.41c-19.89-10.82-47.14-13.52-78.4-9.13-46.92,6.59-102.85,29.17-156.49,64.32-136.38,89.47-194.69,307-229.42,431.95-32,115.28-53.91,212.94-33.59,223.99Z"/>
    </clipPath>
    <clipPath id="clippath-11">
      <path class="cls-4" d="M905.38,553.77l55.91,30.41c-2.32-1.26-5.14-2.02-8.48-2.24-2.97-.19-5.78-.08-8.46,.3-34.75,4.88-46.94,55.15-89.25,95.74-32.33,31.05-86.09,80.31-148,98.06l-55.91-30.41c61.91-17.75,115.67-67.01,148-98.06,42.32-40.59,54.51-90.86,89.25-95.74,2.68-.38,5.49-.48,8.46-.3,3.34,.21,6.16,.97,8.48,2.23Z"/>
    </clipPath>
    <clipPath id="clippath-13">
      <path class="cls-4" d="M695.35,770.51l-55.91-30.41c3.72,2.02,7.63,3.87,11.75,5.54l55.91,30.41c-4.12-1.67-8.04-3.52-11.75-5.54Z"/>
    </clipPath>
    <clipPath id="clippath-14">
      <path class="cls-4" d="M997.81,244.73l-55.91-30.41c-6.71-3.65-11.7-13.46-29.32-48.49-11.53-22.92-25.98-38-41.95-46.69l55.91,30.41c15.97,8.69,30.42,23.76,41.95,46.69,17.62,35.03,22.61,44.84,29.32,48.49Z"/>
    </clipPath>
    <clipPath id="clippath-15">
      <path class="cls-4" d="M803.34,358.15l55.91,30.41c-6.71-3.65-16.33-6.42-29.37-7.85-19.52-2.13-30.8-2.8-45.78-4.06l-55.91-30.41c14.99,1.27,26.26,1.93,45.78,4.06,13.04,1.43,22.66,4.2,29.37,7.85Z"/>
    </clipPath>
    <clipPath id="clippath-16">
      <path class="cls-4" d="M755.67,443.28l-55.91-30.41c-6.42-3.49-12.6-8.02-18.37-13.74l55.91,30.41c5.76,5.71,11.94,10.24,18.37,13.74Z"/>
    </clipPath>
    <clipPath id="clippath-21">
      <path class="cls-4" d="M669.23,391.23l-55.91-30.41c-52.04-60.72-26.96-142.46,61.53-226.97,40.49-38.66,87.61-58.01,130.88-64.09l55.91,30.41c-43.27,6.08-90.39,25.43-130.88,64.09-88.5,84.5-113.58,166.24-61.53,226.97Z"/>
    </clipPath>
  </defs>
  <g class="cls-3">
    <g>
      <g class="cls-7">
        <g class="cls-3">
          <path class="cls-4" d="M371.26,798.24l-55.91-30.41c-18.01-9.79-33.52-28.96-35.18-61.92-2.73-55.29,23.31-153.79,56.52-246.74l55.91,30.41c-33.21,92.95-59.25,191.45-56.52,246.74,1.66,32.96,17.17,52.13,35.18,61.92"/>
        </g>
      </g>
      <path class="cls-4" d="M371.26,798.24l-55.91-30.41c-18.01-9.79-33.52-28.96-35.18-61.92-2.73-55.29,23.31-153.79,56.52-246.74l55.91,30.41c-33.21,92.95-59.25,191.45-56.52,246.74,1.66,32.96,17.17,52.13,35.18,61.92Z"/>
    </g>
    <path class="cls-4" d="M430.44,130.71l55.91,30.41c37.51,20.41-51.89,222.78-70.9,269.84l-55.91-30.41c19.01-47.07,108.42-249.44,70.9-269.84Z"/>
    <g class="cls-3">
      <g class="cls-6">
        <g class="cls-3">
          <path class="cls-4" d="M245.34,486.19l-55.91-30.41c62.87-28.28,132.6-46.03,170.1-55.22l55.91,30.41c-37.5,9.19-107.23,26.94-170.1,55.22"/>
        </g>
      </g>
      <path class="cls-4" d="M245.34,486.19l-55.91-30.41c62.87-28.28,132.6-46.03,170.1-55.22l55.91,30.41c-37.5,9.19-107.23,26.94-170.1,55.22Z"/>
    </g>
    <path class="cls-4" d="M71.99,826.53l-55.91-30.41c-20.32-11.05,1.59-108.71,33.59-223.99,34.73-124.95,93.04-342.47,229.42-431.95,53.64-35.15,109.57-57.72,156.49-64.32,31.26-4.39,58.51-1.69,78.4,9.13l55.91,30.41c-19.89-10.82-47.14-13.52-78.4-9.13-46.92,6.59-102.85,29.17-156.49,64.32-136.38,89.47-194.69,307-229.42,431.95-32,115.28-53.91,212.94-33.59,223.99Z"/>
    <path class="cls-4" d="M589.02,251.08c-21.32,56.36-137.75,376.15-159.29,443.44-21.46,67.34,8.62,84.4,.4,102.5-2.08,4.53-8.77,7.89-17.7,9.15-26.7,3.75-73.38-11.28-76.34-69.84-2.73-55.29,23.31-153.79,56.52-246.74-68.78,16.83-136.3,56.03-173.72,80.09-27.01,86.74-72.45,181.94-98.68,225.19-16.55,27.24-26.06,30.31-42.24,32.59-29.89,4.2-7.06-100.01,27.6-224.91,34.73-124.95,93.04-342.47,229.42-431.95,53.64-35.15,109.57-57.72,156.49-64.32,85.71-12.05,141.28,29.27,97.53,144.8Zm-173.57,179.89c19.68-48.71,114.74-263.75,66.51-271.3-2.84-.43-5.97-.39-9.36,.09-35.45,4.99-98.36,57.8-138.55,118.76-33.51,50.97-64.11,133.11-88.71,207.68,62.87-28.28,132.6-46.03,170.1-55.22"/>
  </g>
  <g class="cls-3">
    <path class="cls-4" d="M905.38,553.77l55.91,30.41c-2.32-1.26-5.14-2.02-8.48-2.24-2.97-.19-5.78-.08-8.46,.3-34.75,4.88-46.94,55.15-89.25,95.74-32.33,31.05-86.09,80.31-148,98.06l-55.91-30.41c61.91-17.75,115.67-67.01,148-98.06,42.32-40.59,54.51-90.86,89.25-95.74,2.68-.38,5.49-.48,8.46-.3,3.34,.21,6.16,.97,8.48,2.23Z"/>
    <g class="cls-3">
      <g class="cls-2">
        <g class="cls-3">
          <path class="cls-4" d="M695.35,770.51l-55.91-30.41c1.49,.81,3.02,1.6,4.57,2.35l55.91,30.41c-1.56-.76-3.08-1.54-4.57-2.35"/>
          <path class="cls-4" d="M699.92,772.86l-55.91-30.41c2.32,1.13,4.71,2.19,7.18,3.19l55.91,30.41c-2.47-1-4.86-2.06-7.18-3.19"/>
        </g>
      </g>
      <path class="cls-4" d="M695.35,770.51l-55.91-30.41c3.72,2.02,7.63,3.87,11.75,5.54l55.91,30.41c-4.12-1.67-8.04-3.52-11.75-5.54Z"/>
    </g>
    <g>
      <g class="cls-8">
        <g class="cls-3">
          <path class="cls-4" d="M997.81,244.73l-55.91-30.41c-6.71-3.65-11.7-13.46-29.32-48.49-11.53-22.92-25.98-38-41.95-46.69l55.91,30.41c15.97,8.69,30.42,23.76,41.95,46.69,17.62,35.03,22.61,44.84,29.32,48.49"/>
        </g>
      </g>
      <path class="cls-4" d="M997.81,244.73l-55.91-30.41c-6.71-3.65-11.7-13.46-29.32-48.49-11.53-22.92-25.98-38-41.95-46.69l55.91,30.41c15.97,8.69,30.42,23.76,41.95,46.69,17.62,35.03,22.61,44.84,29.32,48.49Z"/>
    </g>
    <g>
      <g class="cls-5">
        <g class="cls-3">
          <path class="cls-4" d="M784.1,376.66l-55.91-30.41c14.99,1.27,26.26,1.93,45.78,4.06,5.89,.65,11.08,1.56,15.62,2.71l55.91,30.41c-4.54-1.15-9.73-2.07-15.62-2.71-19.52-2.13-30.8-2.8-45.78-4.06"/>
          <path class="cls-4" d="M845.5,383.43l-55.91-30.41c4.7,1.19,8.71,2.63,12.07,4.27l55.91,30.41c-3.36-1.64-7.36-3.08-12.07-4.27"/>
          <path class="cls-4" d="M857.57,387.7l-55.91-30.41c.58,.28,1.14,.57,1.69,.87l55.91,30.41c-.54-.3-1.1-.58-1.69-.87"/>
        </g>
      </g>
      <path class="cls-4" d="M803.34,358.15l55.91,30.41c-6.71-3.65-16.33-6.42-29.37-7.85-19.52-2.13-30.8-2.8-45.78-4.06l-55.91-30.41c14.99,1.27,26.26,1.93,45.78,4.06,13.04,1.43,22.66,4.2,29.37,7.85Z"/>
    </g>
    <g class="cls-3">
      <g class="cls-1">
        <g class="cls-3">
          <path class="cls-4" d="M755.67,443.28l-55.91-30.41c-6.42-3.49-12.6-8.02-18.37-13.74l55.91,30.41c5.76,5.71,11.94,10.24,18.37,13.74"/>
        </g>
      </g>
      <path class="cls-4" d="M755.67,443.28l-55.91-30.41c-6.42-3.49-12.6-8.02-18.37-13.74l55.91,30.41c5.76,5.71,11.94,10.24,18.37,13.74Z"/>
    </g>
    <g class="cls-3">
      <path class="cls-4" d="M861.65,100.17l-55.91-30.41c28.4-3.99,55.15-2.26,77.27,3.48l55.91,30.41c-22.12-5.74-48.86-7.47-77.27-3.48"/>
      <path class="cls-4" d="M938.92,103.65l-55.91-30.41c9.1,2.36,17.42,5.4,24.75,9.01l55.91,30.41c-7.33-3.6-15.65-6.64-24.75-9.01"/>
      <path class="cls-4" d="M963.67,112.66l-55.91-30.41c1.28,.63,2.53,1.28,3.75,1.94l55.91,30.41c-1.22-.66-2.47-1.31-3.75-1.94"/>
    </g>
    <path class="cls-4" d="M861.65,100.17c56.64-7.96,106.69,6.82,126.61,30.83,30.11,36.25,29.32,113.68,15.34,115.65-10.76-2.18-12.93-6.33-35.11-50.41-22.91-45.52-57.29-60.09-92.33-55.17-92.23,12.96-188.9,161.08-92.07,235.59,14.99,1.27,26.26,1.93,45.78,4.06,76.91,8.43,34.85,63.46-21.38,71.36-23.85,3.35-50.25-1.78-71.2-22.54-85.89,57.51-160.64,293.73-30.21,346.51,61.91-17.75,115.67-67.01,148-98.06,42.32-40.59,54.51-90.86,89.25-95.74,2.68-.38,5.49-.48,8.46-.3,58.94,3.74-44.37,179.06-203.79,235.11-21.06,7.4-40.43,12.21-58.18,14.7-235.78,33.14-185.54-341.3-21.61-440.53-52.04-60.72-26.96-142.46,61.53-226.97,40.49-38.66,87.61-58.01,130.88-64.09Z"/>
    <path class="cls-4" d="M598.39,818.87l-55.91-30.41c-124.17-67.55-66.65-344.41,70.84-427.64l55.91,30.41c-137.5,83.23-195.02,360.09-70.84,427.64Z"/>
    <path class="cls-4" d="M669.23,391.23l-55.91-30.41c-52.04-60.72-26.96-142.46,61.53-226.97,40.49-38.66,87.61-58.01,130.88-64.09l55.91,30.41c-43.27,6.08-90.39,25.43-130.88,64.09-88.5,84.5-113.58,166.24-61.53,226.97Z"/>
  </g>
</svg>